<svg xmlns="http://www.w3.org/2000/svg"
     width="617.0" height="312.3"
     viewBox="0 0 617.0 312.3">

  <g transform="translate(44.00,44)">
    <g transform="scale(0.91283)">
    <g transform="scale(0.69204)">
      <path d="M 6.0,144.1 C 5.7,143.8 5.7,143.4 5.7,134.7 C 5.8,126.0 5.8,125.7 6.1,125.4 C 6.5,125.1 6.6,125.1 78.4,125.0 L 150.4,125.0 L 152.5,124.6 C 158.3,123.4 162.5,120.8 166.1,116.0 C 168.9,112.3 170.6,106.9 170.4,102.5 C 170.2,99.0 168.7,94.1 167.0,91.6 C 165.1,88.7 163.0,86.6 160.1,84.8 C 157.6,83.1 155.6,82.3 152.7,81.8 C 150.9,81.5 150.4,81.5 94.6,81.5 C 45.5,81.5 38.1,81.4 35.9,81.2 C 34.6,81.1 33.2,80.9 32.7,80.7 C 32.2,80.6 31.6,80.5 31.2,80.4 C 28.2,79.9 21.7,77.2 18.5,75.1 C 14.1,72.2 9.9,68.0 6.8,63.4 C 5.0,60.7 4.3,59.3 2.7,55.1 C 1.3,51.5 0.6,48.2 0.1,43.7 C -0.1,42.0 -0.0,39.1 0.3,37.2 C 1.1,32.2 1.8,28.8 2.7,26.6 C 4.4,22.0 7.9,16.5 11.4,12.9 C 15.7,8.2 23.2,3.6 29.6,1.6 C 30.7,1.3 32.7,0.8 34.2,0.5 L 36.9,0.1 L 108.7,0.1 L 180.5,0.1 L 180.8,0.5 C 181.2,0.9 181.2,0.9 181.2,9.8 L 181.2,18.6 L 180.8,19.0 L 180.4,19.4 L 109.6,19.4 L 38.7,19.4 L 36.9,19.9 C 33.8,20.6 31.5,21.6 28.9,23.3 C 25.2,25.9 22.8,28.7 21.1,32.7 C 20.0,35.0 19.5,37.7 19.3,40.8 C 19.3,42.8 19.3,43.3 19.7,45.2 C 20.4,48.5 21.6,51.2 23.5,53.6 C 26.5,57.4 30.3,59.9 35.0,61.3 L 36.7,61.7 L 94.2,61.8 L 151.7,61.9 L 154.8,62.4 C 156.5,62.7 158.1,63.0 158.4,63.2 C 158.6,63.3 159.5,63.5 160.2,63.7 C 163.9,64.8 167.7,66.6 171.0,68.8 C 175.5,71.8 180.8,77.4 183.5,81.9 C 185.7,85.5 187.8,90.9 188.6,94.9 C 189.3,98.7 189.5,100.1 189.5,103.1 C 189.5,104.7 189.4,106.5 189.3,107.1 C 189.2,107.6 189.1,108.7 189.0,109.4 C 188.5,112.2 187.5,115.9 186.1,119.5 C 184.0,124.5 177.8,132.6 173.2,136.1 C 171.5,137.4 168.0,139.5 165.8,140.6 C 163.0,142.0 158.6,143.4 155.4,144.0 L 153.0,144.4 L 79.7,144.4 L 6.3,144.5 L 6.0,144.1 Z" fill="#8A9098"/>
      <path d="M 329.1,144.5 C 320.9,144.3 320.0,144.2 314.9,142.8 C 311.8,141.9 308.1,140.4 304.4,138.4 C 300.3,136.3 297.2,133.9 293.4,130.1 C 289.2,125.9 286.2,121.8 284.0,117.4 C 281.6,112.6 279.4,106.7 279.0,103.7 C 279.0,103.3 278.7,101.6 278.5,100.0 L 278.0,97.1 L 278.0,48.9 L 278.0,0.8 L 278.4,0.5 C 278.8,0.1 279.2,0.1 287.4,0.1 C 295.7,0.1 296.1,0.1 296.5,0.5 L 296.9,0.8 L 296.9,48.1 C 296.9,100.5 296.8,97.5 298.0,101.5 C 298.6,103.6 299.0,104.7 300.4,107.5 C 302.7,112.4 306.0,116.3 309.9,118.9 C 315.1,122.4 318.3,123.8 323.0,124.6 C 324.9,125.0 325.1,125.0 369.6,125.0 C 394.2,125.0 414.3,125.0 414.4,124.9 C 414.5,124.9 415.3,124.7 416.1,124.6 C 419.3,124.0 423.3,122.4 426.4,120.6 C 428.1,119.6 430.3,117.9 432.0,116.5 C 436.3,112.8 440.6,105.3 441.6,99.6 C 442.3,96.0 442.3,97.6 442.3,48.1 C 442.3,17.2 442.3,0.8 442.4,0.6 C 442.8,-0.0 443.4,-0.1 452.3,0.1 C 460.3,0.2 460.8,0.2 461.1,0.5 C 461.5,0.9 461.5,-5.5 461.4,55.1 C 461.4,78.4 461.4,96.3 461.3,96.8 C 461.2,97.2 461.1,98.5 460.9,99.6 C 460.7,102.1 460.1,104.9 459.4,107.1 C 458.2,110.7 456.7,114.6 455.2,117.5 C 453.5,120.7 452.6,122.2 451.4,123.6 C 451.0,124.0 450.0,125.2 449.2,126.2 C 446.2,129.8 441.4,134.2 438.1,136.4 C 436.2,137.6 431.7,140.0 429.4,140.9 C 427.8,141.6 426.9,141.9 424.1,142.8 C 422.3,143.4 417.5,144.2 415.4,144.4 C 413.4,144.5 338.0,144.6 329.1,144.5 Z" fill="#8A9098"/>
      <path d="M 566.0,144.1 L 565.6,143.8 L 565.6,72.4 L 565.6,0.9 L 566.0,0.5 L 566.4,0.1 L 574.9,0.2 L 583.4,0.2 L 583.8,0.6 L 584.2,1.0 L 584.2,72.0 C 584.2,119.5 584.2,143.2 584.1,143.6 C 584.0,143.9 583.8,144.2 583.6,144.3 C 583.4,144.4 580.1,144.5 574.8,144.5 C 566.5,144.5 566.3,144.5 566.0,144.1 Z" fill="#8A9098"/>
      <path d="M 743.9,144.3 C 743.8,144.2 743.5,143.8 743.4,143.5 C 743.3,143.0 743.3,125.2 743.3,81.5 L 743.4,20.3 L 742.9,19.9 L 742.5,19.4 L 708.2,19.4 C 674.8,19.4 674.0,19.4 673.6,19.1 C 673.3,18.8 673.3,18.7 673.3,9.9 L 673.3,1.0 L 673.7,0.6 L 674.0,0.2 L 693.5,0.1 C 704.1,0.1 740.7,0.0 774.8,0.1 L 836.7,0.1 L 837.0,0.5 C 837.4,0.8 837.4,0.9 837.4,9.6 C 837.4,14.4 837.3,18.6 837.2,18.8 C 837.1,19.0 836.9,19.2 836.8,19.2 C 836.6,19.3 820.0,19.3 799.9,19.4 C 779.8,19.4 763.2,19.5 763.1,19.6 C 762.9,19.6 762.7,19.8 762.6,20.0 C 762.4,20.3 762.4,33.8 762.3,81.8 C 762.3,115.6 762.2,143.4 762.2,143.6 C 762.0,144.5 761.8,144.5 752.7,144.5 C 747.3,144.5 744.1,144.4 743.9,144.3 Z" fill="#8A9098"/>
    </g>
    </g>
  </g>
  <g transform="translate(92.50,219.78)">
  <circle cx="0.0" cy="0.0" r="45.0" fill="none" stroke="#00B86B" stroke-width="7" />
  <line x1="144.0" y1="0.0" x2="288.0" y2="0.0" stroke="#8A9098" stroke-width="9" stroke-linecap="butt" />
  <polygon points="144.0,-45.0 92.03847577293368,45.0 195.96152422706632,45.0" fill="#FF9500" />
  <polygon points="288.0,-45.0 236.03847577293368,45.0 339.9615242270663,45.0" fill="#FF9500" />
  <rect x="387.0" y="-45.0" width="90" height="90" fill="none" stroke="#8A9098" stroke-width="7" />
  <rect x="416.0" y="-16.0" width="32" height="32" fill="#E60012" />
  </g>

</svg>
